<svg xmlns="http://www.w3.org/2000/svg" width="41.098" height="41.373" viewBox="0 0 41.098 41.373"><defs><style>.a,.c{fill:none;}.a,.b,.c{stroke:#e34d27;stroke-miterlimit:10;}.b{fill:rgba(227,77,39,0.15);}.c{stroke-width:1.5px;}</style></defs><g transform="translate(-424.51 -431.105)"><path class="a" d="M425.01,458.479V468.59a2.537,2.537,0,0,0,2.023,2.492c3.412.7,10.465,1.713,15.852-.478v-2.59a.672.672,0,0,1,1.055-.553l5.07,3.518a33.061,33.061,0,0,0,14.6-1.6,2.318,2.318,0,0,0,1.5-2.238l-.221-6.879s-7.875,5.588-22.625,1.213C438.01,463.979,430.135,463.332,425.01,458.479Z"/><path class="b" d="M428.377,439.1v7.572a2.765,2.765,0,0,1-.254,1.16c-.8,1.732-3.2,7.2-3,10.018.25,3.375,10.369,7.5,17.25,3,0,0,13.125,3.95,22.625-1.213,0,0,.248-6.675-8.5-5.787a3.758,3.758,0,0,1-2.041-.386c-2.76-1.367-5.462-2.5-8.2-7.489l-.375-6.875Z"/><rect class="c" width="18.962" height="7.249" rx="1.667" transform="translate(427.573 431.855)"/></g></svg>