<svg xmlns="http://www.w3.org/2000/svg" width="35.849" height="33.857" viewBox="0 0 35.849 33.857"><defs><style>.a{fill:none;stroke:#fff;stroke-miterlimit:10;stroke-width:2px;}</style></defs><g transform="translate(0.351 0.212)"><g transform="translate(1.07 0.43)"><path class="a" d="M9.688,17.4,1.07,29.863c1.475.911,12.507,7.508,24.484,3.984a24.3,24.3,0,0,0,8.6-4.557L26.005,17.4" transform="translate(-1.07 -2.671)"/><path class="a" d="M12.648.71,2.38,6.126,4.428,9.762l5.138-2.17V12.47" transform="translate(-1.243 -0.467)"/><path class="a" d="M26.04.71,36.316,6.126,34.259,9.762l-5.138-2.17V12.47" transform="translate(-4.368 -0.467)"/><path class="a" d="M13.72.595C16.376,4.067,22.243,4.067,24.769.43" transform="translate(-2.741 -0.43)"/><rect class="a" width="16.491" height="3.472" transform="translate(8.297 11.804)"/></g></g></svg>